<svg width="56" height="56" viewBox="0 0 56 56" fill="none" xmlns="http://www.w3.org/2000/svg">
<g clip-path="url(#clip0_318_1068)">
<circle cx="28" cy="28" r="28" fill="#0AAD18"/>
<path d="M21.0028 22C19.8401 22 19.0009 20.6356 19.0009 19.72C18.9847 19.2767 19.1865 18.8464 19.562 18.5238C19.9375 18.2012 20.4558 18.0128 21.0028 18C22.1376 18.029 23.03 18.7959 22.9992 19.7156C22.9992 20.6311 22.1601 22 21.0028 22Z" fill="white"/>
<path d="M34.9973 22C33.8411 22 33.0028 20.6311 33.0028 19.7126C32.9641 19.1117 33.336 18.5424 33.9699 18.2325C34.6038 17.9225 35.3962 17.9225 36.0301 18.2325C36.664 18.5424 37.0359 19.1117 36.9972 19.7126C36.9972 20.6267 36.1589 22 34.9973 22Z" fill="white"/>
<path d="M27.657 29.1438L24.9159 25.1318C24.0234 23.8119 22.5639 23.0174 20.9992 23C19.4328 23.0158 17.971 23.8104 17.0775 25.1318L14.3364 29.1438C14.0314 29.5707 13.9269 30.1146 14.0513 30.6284C14.212 31.3163 14.8081 31.8035 15.4969 31.8099C15.9963 31.8027 16.4594 31.5408 16.7324 31.1113L18.068 29.0565V37.4863C18.0675 37.7584 18.2737 37.9837 18.5382 38H20.0388C20.3013 37.9811 20.5046 37.7565 20.504 37.4863V32.1079C20.4855 31.9244 20.5704 31.7462 20.7227 31.6485C20.8751 31.5508 21.0683 31.5508 21.2207 31.6485C21.373 31.7462 21.4579 31.9244 21.4394 32.1079V37.4863C21.4387 37.7565 21.6421 37.9811 21.9046 38H23.4302C23.6927 37.9811 23.8961 37.7565 23.8954 37.4863V29.0462L25.231 31.101C25.5084 31.5451 25.9878 31.8126 26.5015 31.8099C27.1937 31.8053 27.793 31.3151 27.9521 30.6233C28.0721 30.1096 27.964 29.5677 27.657 29.1438Z" fill="white"/>
<path d="M41.6607 29.1488L38.9188 25.1391C38.0399 23.8017 36.5706 23 34.9986 23C33.4265 23 31.9573 23.8017 31.0784 25.1391L28.3365 29.1386C28.0314 29.5652 27.9269 30.1088 28.0513 30.6223C28.2076 31.3121 28.8022 31.8035 29.4923 31.8134C29.9918 31.8062 30.4551 31.5445 30.7281 31.1152L32.0641 29.0616V37.4866C32.0634 37.7567 32.2668 37.9811 32.5294 38H34.0304C34.293 37.9811 34.4964 37.7567 34.4957 37.4866V32.3936C34.4957 31.9675 34.7059 31.6235 34.9611 31.6235C35.2162 31.6235 35.4314 31.9675 35.4314 32.3936V37.4866C35.4307 37.7567 35.6341 37.9811 35.8967 38H37.3977C37.6623 37.9837 37.8685 37.7585 37.8681 37.4866V29.0513L39.204 31.1049C39.4862 31.5566 39.9771 31.825 40.4999 31.8134C41.1922 31.8088 41.7917 31.3188 41.9509 30.6275C42.0723 30.1148 41.966 29.5733 41.6607 29.1488Z" fill="white"/>
</g>
<defs>
<clipPath id="clip0_318_1068">
<rect width="56" height="56" fill="white"/>
</clipPath>
</defs>
</svg>
