<svg width="56" height="56" viewBox="0 0 56 56" fill="none" xmlns="http://www.w3.org/2000/svg">
<g clip-path="url(#clip0_318_896)">
<circle cx="28" cy="28" r="28" fill="#0AAD18"/>
<path d="M41.665 22.8301C41.4627 22.6552 41.1972 22.5717 40.9312 22.5991C40.6652 22.6266 40.4223 22.7626 40.26 22.9751L38.29 25.6351C38.1751 25.8511 37.9208 25.9523 37.6889 25.8742C37.457 25.7961 37.3157 25.5616 37.355 25.3201V16.9101C37.3577 16.7244 37.2865 16.5453 37.1571 16.4121C37.0277 16.279 36.8507 16.2027 36.665 16.2001C36.4769 16.1952 36.2955 16.2696 36.165 16.4051C36.0348 16.5387 35.9629 16.7185 35.965 16.9051V22.6701C35.965 22.9572 35.7322 23.1901 35.445 23.1901C35.1578 23.1901 34.925 22.9572 34.925 22.6701V14.7151C34.9306 14.3295 34.6254 14.011 34.24 14.0001C34.0524 13.9976 33.8719 14.0716 33.74 14.2051C33.608 14.3383 33.5327 14.5175 33.53 14.7051V22.6701C33.53 22.9559 33.2983 23.1876 33.0125 23.1876C32.7267 23.1876 32.495 22.9559 32.495 22.6701V16.0001C32.4978 15.6126 32.1874 15.2955 31.8 15.2901C31.6113 15.2871 31.43 15.3632 31.3 15.5001C31.168 15.6329 31.0942 15.8128 31.095 16.0001V22.6701C31.095 22.9559 30.8633 23.1876 30.5775 23.1876C30.2917 23.1876 30.06 22.9559 30.06 22.6701V17.6101C30.0615 17.3962 29.9768 17.1907 29.825 17.0401C29.5731 16.9003 29.2751 16.8696 29 16.9551C28.415 17.2801 28.53 18.3651 28.53 19.6801V27.9351L28.64 27.8201C28.735 27.7251 28.84 27.6301 28.945 27.5401C30.5547 26.181 32.9427 26.3034 34.405 27.8201C35.9978 29.439 35.9978 32.0361 34.405 33.6551L28.405 39.7751C28.3102 39.8793 28.1759 39.9388 28.035 39.9388C27.8941 39.9388 27.7598 39.8793 27.665 39.7751L21.6 33.6551C20.0153 32.0329 20.0153 29.4423 21.6 27.8201C22.3596 27.0465 23.3983 26.6107 24.4825 26.6107C25.5667 26.6107 26.6054 27.0465 27.365 27.8201L27.48 27.9351V21.3401C27.48 19.2701 27.595 17.3651 26.955 16.9751C26.687 16.8679 26.3839 16.8958 26.14 17.0501C25.9882 17.2007 25.9035 17.4062 25.905 17.6201V22.6751C25.905 22.9609 25.6733 23.1926 25.3875 23.1926C25.1017 23.1926 24.87 22.9609 24.87 22.6751V16.0251C24.8689 15.8372 24.7934 15.6574 24.66 15.5251C24.5295 15.3896 24.3481 15.3152 24.16 15.3201C23.7883 15.3438 23.4992 15.6526 23.5 16.0251V22.6751C23.5 22.9622 23.2672 23.1951 22.98 23.1951C22.6928 23.1951 22.46 22.9622 22.46 22.6751V14.7201C22.4614 14.5327 22.3875 14.3526 22.255 14.2201C22.1245 14.0846 21.9431 14.0102 21.755 14.0151C21.5685 14.0164 21.3902 14.0921 21.2597 14.2254C21.1292 14.3587 21.0573 14.5385 21.06 14.7251V22.6751C21.06 22.9622 20.8272 23.1951 20.54 23.1951C20.2528 23.1951 20.02 22.9622 20.02 22.6751V16.9201C20.0227 16.7344 19.9515 16.5553 19.8221 16.4221C19.6927 16.289 19.5157 16.2127 19.33 16.2101C19.1419 16.2052 18.9605 16.2796 18.83 16.4151C18.6952 16.5464 18.6194 16.7268 18.62 16.9151V25.3351C18.6298 25.5632 18.4836 25.769 18.265 25.8351C18.0535 25.9092 17.8186 25.8336 17.69 25.6501L15.745 23.0001C15.582 22.7841 15.3385 22.6434 15.07 22.6101H14.965C14.7299 22.6128 14.5039 22.7018 14.33 22.8601C14.1256 23.0444 14.0062 23.3049 14 23.5801C13.9996 23.7795 14.0588 23.9745 14.17 24.1401L18.38 30.4601C19.1578 31.6267 19.5719 32.9979 19.57 34.4001V41.5001C19.57 41.7762 19.7939 42.0001 20.07 42.0001H35.93C36.2061 42.0001 36.43 41.7762 36.43 41.5001V34.3901C36.4281 32.9879 36.8422 31.6167 37.62 30.4501L41.83 24.1351C42.1091 23.72 42.0386 23.1626 41.665 22.8301Z" fill="white"/>
</g>
<defs>
<clipPath id="clip0_318_896">
<rect width="56" height="56" fill="white"/>
</clipPath>
</defs>
</svg>
