<svg width="56" height="56" viewBox="0 0 56 56" fill="none" xmlns="http://www.w3.org/2000/svg">
<g clip-path="url(#clip0_318_359)">
<circle cx="28" cy="28" r="28" fill="#0AAD18"/>
<path d="M27.0009 34.6037L26.6009 40.1037C26.5825 40.3661 26.3639 40.5693 26.1009 40.5687H20.7559C20.4798 40.5687 20.2559 40.3448 20.2559 40.0687V38.9987C20.267 37.5284 19.689 36.1149 18.6509 35.0737L15.6059 32.0737C14.5537 31.0275 13.974 29.5972 14.0009 28.1137L14.0809 19.0637C14.0831 18.877 14.1766 18.7033 14.3312 18.5986C14.4857 18.4939 14.6817 18.4715 14.8559 18.5387C15.907 18.8871 16.5977 19.8926 16.5459 20.9987C16.5459 21.4487 16.5459 22.0237 16.5459 22.6737V22.7387C16.5459 22.9187 16.5459 23.1037 16.5459 23.2987C16.5459 23.4037 16.5459 23.5137 16.5459 23.6187C16.5459 23.7237 16.5459 23.8737 16.5759 24.0087C16.7959 26.7837 17.6159 30.2687 20.5359 31.9687C20.6512 32.0355 20.7883 32.0535 20.9169 32.0187C21.0455 31.984 21.1549 31.8994 21.2209 31.7837C21.2909 31.6675 21.3107 31.528 21.2759 31.3969C21.241 31.2659 21.1544 31.1546 21.0359 31.0887C18.7659 29.7637 17.9459 27.0887 17.6509 24.7137H17.8209C18.3797 24.7042 18.9051 24.9792 19.2159 25.4437L20.3309 27.1087C20.7639 27.7536 21.3342 28.2949 22.0009 28.6937C23.3817 29.492 24.6625 30.4521 25.8159 31.5537C26.631 32.3527 27.0627 33.4639 27.0009 34.6037Z" fill="white"/>
<path d="M29.001 34.6037L29.416 40.1037C29.4369 40.3641 29.6547 40.5645 29.916 40.5637H35.246C35.5221 40.5637 35.746 40.3398 35.746 40.0637V38.9987C35.7348 37.5284 36.3128 36.1149 37.351 35.0737L40.396 32.0737C41.4482 31.0275 42.0279 29.5972 42.001 28.1137L41.921 19.0637C41.9187 18.877 41.8252 18.7033 41.6707 18.5986C41.5161 18.4939 41.3201 18.4715 41.146 18.5387C40.0949 18.8871 39.4042 19.8926 39.456 20.9987C39.456 21.4487 39.456 22.0237 39.456 22.6737V22.7387C39.456 22.9187 39.456 23.1037 39.456 23.2987C39.456 23.4037 39.456 23.5137 39.456 23.6187C39.456 23.7237 39.456 23.8737 39.426 24.0087C39.206 26.7837 38.386 30.2687 35.466 31.9687C35.3507 32.0355 35.2135 32.0535 35.085 32.0187C34.9564 31.984 34.8469 31.8994 34.781 31.7837C34.7109 31.6675 34.6911 31.528 34.726 31.3969C34.7609 31.2659 34.8475 31.1546 34.966 31.0887C37.236 29.7637 38.056 27.0887 38.351 24.7137H38.181C37.6221 24.7042 37.0967 24.9792 36.786 25.4437L35.671 27.1087C35.2379 27.7536 34.6676 28.2949 34.001 28.6937C32.6201 29.492 31.3394 30.4521 30.186 31.5537C29.3709 32.3527 28.9391 33.4639 29.001 34.6037Z" fill="white"/>
<path d="M28.0008 27.4487C27.9242 27.4474 27.8489 27.4286 27.7808 27.3937C22.0808 24.2837 20.4408 21.2237 20.0658 19.1987C19.7478 17.3867 20.6987 15.5898 22.3758 14.8337C23.2217 14.4329 24.1938 14.3914 25.0708 14.7187C26.4758 15.2187 27.4758 16.5687 28.0008 17.4187C28.5008 16.5687 29.5008 15.2387 30.9308 14.7187C31.8077 14.3914 32.7798 14.4329 33.6258 14.8337C35.3028 15.5898 36.2537 17.3867 35.9358 19.1987C35.5608 21.1987 33.9358 24.2837 28.2208 27.3937C28.1526 27.4286 28.0773 27.4474 28.0008 27.4487Z" fill="white"/>
</g>
<defs>
<clipPath id="clip0_318_359">
<rect width="56" height="56" fill="white"/>
</clipPath>
</defs>
</svg>
